<mxfile host="app.diagrams.net" modified="2023-04-14T12:15:14.108Z" agent="Mozilla/5.0 (Macintosh; Intel Mac OS X 10.15; rv:109.0) Gecko/20100101 Firefox/110.0" version="21.1.7" etag="qalL14t1X8g3R75wjflQ" type="github">
  <diagram name="Page-1" id="1XxJ9ybuiKWSB8e7fiDL">
    <mxGraphModel>
      <root>
        <mxCell id="0" />
        <mxCell id="1" parent="0" />
      </root>
    </mxGraphModel>
  </diagram>
</mxfile>
